<?xml version="1.0" encoding="utf-8" standalone="no"?>
<!DOCTYPE svg PUBLIC "-//W3C//DTD SVG 1.1//EN"
  "http://www.w3.org/Graphics/SVG/1.1/DTD/svg11.dtd">
<!-- Created with matplotlib (http://matplotlib.org/) -->
<svg height="218pt" version="1.1" viewBox="0 0 437 218" width="437pt" xmlns="http://www.w3.org/2000/svg" xmlns:xlink="http://www.w3.org/1999/xlink">
 <defs>
  <style type="text/css">
*{stroke-linecap:butt;stroke-linejoin:round;}
  </style>
 </defs>
 <g id="figure_1">
  <g id="patch_1">
   <path d="M 0 218.16 
L 437.04 218.16 
L 437.04 0 
L 0 0 
z
" style="fill:#ffffff;"/>
  </g>
  <g id="axes_1">
   <g id="patch_2">
    <path d="M 49.48 190.28 
L 423.72 190.28 
L 423.72 13.32 
L 49.48 13.32 
z
" style="fill:#ffffff;"/>
   </g>
   <g id="matplotlib.axis_1">
    <g id="xtick_1">
     <g id="line2d_1">
      <path clip-path="url(#pdefd32e653)" d="M 49.48 190.28 
L 49.48 13.32 
" style="fill:none;stroke:#808080;stroke-linecap:square;stroke-width:0.8;"/>
     </g>
     <g id="line2d_2">
      <defs>
       <path d="M 0 0 
L 0 3.5 
" id="m66a85be285" style="stroke:#000000;stroke-width:0.8;"/>
      </defs>
      <g>
       <use style="stroke:#000000;stroke-width:0.8;" x="49.48" xlink:href="#m66a85be285" y="190.28"/>
      </g>
     </g>
     <g id="text_1">
      <!-- 0 -->
      <defs>
       <path d="M 31.78125 66.40625 
Q 24.171875 66.40625 20.328125 58.90625 
Q 16.5 51.421875 16.5 36.375 
Q 16.5 21.390625 20.328125 13.890625 
Q 24.171875 6.390625 31.78125 6.390625 
Q 39.453125 6.390625 43.28125 13.890625 
Q 47.125 21.390625 47.125 36.375 
Q 47.125 51.421875 43.28125 58.90625 
Q 39.453125 66.40625 31.78125 66.40625 
z
M 31.78125 74.21875 
Q 44.046875 74.21875 50.515625 64.515625 
Q 56.984375 54.828125 56.984375 36.375 
Q 56.984375 17.96875 50.515625 8.265625 
Q 44.046875 -1.421875 31.78125 -1.421875 
Q 19.53125 -1.421875 13.0625 8.265625 
Q 6.59375 17.96875 6.59375 36.375 
Q 6.59375 54.828125 13.0625 64.515625 
Q 19.53125 74.21875 31.78125 74.21875 
z
" id="DejaVuSans-30"/>
      </defs>
      <g transform="translate(46.29875 204.878437)scale(0.1 -0.1)">
       <use xlink:href="#DejaVuSans-30"/>
      </g>
     </g>
    </g>
    <g id="xtick_2">
     <g id="line2d_3">
      <path clip-path="url(#pdefd32e653)" d="M 91.062222 190.28 
L 91.062222 13.32 
" style="fill:none;stroke:#808080;stroke-linecap:square;stroke-width:0.8;"/>
     </g>
     <g id="line2d_4">
      <g>
       <use style="stroke:#000000;stroke-width:0.8;" x="91.062222" xlink:href="#m66a85be285" y="190.28"/>
      </g>
     </g>
     <g id="text_2">
      <!-- 5 -->
      <defs>
       <path d="M 10.796875 72.90625 
L 49.515625 72.90625 
L 49.515625 64.59375 
L 19.828125 64.59375 
L 19.828125 46.734375 
Q 21.96875 47.46875 24.109375 47.828125 
Q 26.265625 48.1875 28.421875 48.1875 
Q 40.625 48.1875 47.75 41.5 
Q 54.890625 34.8125 54.890625 23.390625 
Q 54.890625 11.625 47.5625 5.09375 
Q 40.234375 -1.421875 26.90625 -1.421875 
Q 22.3125 -1.421875 17.546875 -0.640625 
Q 12.796875 0.140625 7.71875 1.703125 
L 7.71875 11.625 
Q 12.109375 9.234375 16.796875 8.0625 
Q 21.484375 6.890625 26.703125 6.890625 
Q 35.15625 6.890625 40.078125 11.328125 
Q 45.015625 15.765625 45.015625 23.390625 
Q 45.015625 31 40.078125 35.4375 
Q 35.15625 39.890625 26.703125 39.890625 
Q 22.75 39.890625 18.8125 39.015625 
Q 14.890625 38.140625 10.796875 36.28125 
z
" id="DejaVuSans-35"/>
      </defs>
      <g transform="translate(87.880972 204.878437)scale(0.1 -0.1)">
       <use xlink:href="#DejaVuSans-35"/>
      </g>
     </g>
    </g>
    <g id="xtick_3">
     <g id="line2d_5">
      <path clip-path="url(#pdefd32e653)" d="M 132.644444 190.28 
L 132.644444 13.32 
" style="fill:none;stroke:#808080;stroke-linecap:square;stroke-width:0.8;"/>
     </g>
     <g id="line2d_6">
      <g>
       <use style="stroke:#000000;stroke-width:0.8;" x="132.644444" xlink:href="#m66a85be285" y="190.28"/>
      </g>
     </g>
     <g id="text_3">
      <!-- 10 -->
      <defs>
       <path d="M 12.40625 8.296875 
L 28.515625 8.296875 
L 28.515625 63.921875 
L 10.984375 60.40625 
L 10.984375 69.390625 
L 28.421875 72.90625 
L 38.28125 72.90625 
L 38.28125 8.296875 
L 54.390625 8.296875 
L 54.390625 0 
L 12.40625 0 
z
" id="DejaVuSans-31"/>
      </defs>
      <g transform="translate(126.281944 204.878437)scale(0.1 -0.1)">
       <use xlink:href="#DejaVuSans-31"/>
       <use x="63.623047" xlink:href="#DejaVuSans-30"/>
      </g>
     </g>
    </g>
    <g id="xtick_4">
     <g id="line2d_7">
      <path clip-path="url(#pdefd32e653)" d="M 174.226667 190.28 
L 174.226667 13.32 
" style="fill:none;stroke:#808080;stroke-linecap:square;stroke-width:0.8;"/>
     </g>
     <g id="line2d_8">
      <g>
       <use style="stroke:#000000;stroke-width:0.8;" x="174.226667" xlink:href="#m66a85be285" y="190.28"/>
      </g>
     </g>
     <g id="text_4">
      <!-- 15 -->
      <g transform="translate(167.864167 204.878437)scale(0.1 -0.1)">
       <use xlink:href="#DejaVuSans-31"/>
       <use x="63.623047" xlink:href="#DejaVuSans-35"/>
      </g>
     </g>
    </g>
    <g id="xtick_5">
     <g id="line2d_9">
      <path clip-path="url(#pdefd32e653)" d="M 215.808889 190.28 
L 215.808889 13.32 
" style="fill:none;stroke:#808080;stroke-linecap:square;stroke-width:0.8;"/>
     </g>
     <g id="line2d_10">
      <g>
       <use style="stroke:#000000;stroke-width:0.8;" x="215.808889" xlink:href="#m66a85be285" y="190.28"/>
      </g>
     </g>
     <g id="text_5">
      <!-- 20 -->
      <defs>
       <path d="M 19.1875 8.296875 
L 53.609375 8.296875 
L 53.609375 0 
L 7.328125 0 
L 7.328125 8.296875 
Q 12.9375 14.109375 22.625 23.890625 
Q 32.328125 33.6875 34.8125 36.53125 
Q 39.546875 41.84375 41.421875 45.53125 
Q 43.3125 49.21875 43.3125 52.78125 
Q 43.3125 58.59375 39.234375 62.25 
Q 35.15625 65.921875 28.609375 65.921875 
Q 23.96875 65.921875 18.8125 64.3125 
Q 13.671875 62.703125 7.8125 59.421875 
L 7.8125 69.390625 
Q 13.765625 71.78125 18.9375 73 
Q 24.125 74.21875 28.421875 74.21875 
Q 39.75 74.21875 46.484375 68.546875 
Q 53.21875 62.890625 53.21875 53.421875 
Q 53.21875 48.921875 51.53125 44.890625 
Q 49.859375 40.875 45.40625 35.40625 
Q 44.1875 33.984375 37.640625 27.21875 
Q 31.109375 20.453125 19.1875 8.296875 
z
" id="DejaVuSans-32"/>
      </defs>
      <g transform="translate(209.446389 204.878437)scale(0.1 -0.1)">
       <use xlink:href="#DejaVuSans-32"/>
       <use x="63.623047" xlink:href="#DejaVuSans-30"/>
      </g>
     </g>
    </g>
    <g id="xtick_6">
     <g id="line2d_11">
      <path clip-path="url(#pdefd32e653)" d="M 257.391111 190.28 
L 257.391111 13.32 
" style="fill:none;stroke:#808080;stroke-linecap:square;stroke-width:0.8;"/>
     </g>
     <g id="line2d_12">
      <g>
       <use style="stroke:#000000;stroke-width:0.8;" x="257.391111" xlink:href="#m66a85be285" y="190.28"/>
      </g>
     </g>
     <g id="text_6">
      <!-- 25 -->
      <g transform="translate(251.028611 204.878437)scale(0.1 -0.1)">
       <use xlink:href="#DejaVuSans-32"/>
       <use x="63.623047" xlink:href="#DejaVuSans-35"/>
      </g>
     </g>
    </g>
    <g id="xtick_7">
     <g id="line2d_13">
      <path clip-path="url(#pdefd32e653)" d="M 298.973333 190.28 
L 298.973333 13.32 
" style="fill:none;stroke:#808080;stroke-linecap:square;stroke-width:0.8;"/>
     </g>
     <g id="line2d_14">
      <g>
       <use style="stroke:#000000;stroke-width:0.8;" x="298.973333" xlink:href="#m66a85be285" y="190.28"/>
      </g>
     </g>
     <g id="text_7">
      <!-- 30 -->
      <defs>
       <path d="M 40.578125 39.3125 
Q 47.65625 37.796875 51.625 33 
Q 55.609375 28.21875 55.609375 21.1875 
Q 55.609375 10.40625 48.1875 4.484375 
Q 40.765625 -1.421875 27.09375 -1.421875 
Q 22.515625 -1.421875 17.65625 -0.515625 
Q 12.796875 0.390625 7.625 2.203125 
L 7.625 11.71875 
Q 11.71875 9.328125 16.59375 8.109375 
Q 21.484375 6.890625 26.8125 6.890625 
Q 36.078125 6.890625 40.9375 10.546875 
Q 45.796875 14.203125 45.796875 21.1875 
Q 45.796875 27.640625 41.28125 31.265625 
Q 36.765625 34.90625 28.71875 34.90625 
L 20.21875 34.90625 
L 20.21875 43.015625 
L 29.109375 43.015625 
Q 36.375 43.015625 40.234375 45.921875 
Q 44.09375 48.828125 44.09375 54.296875 
Q 44.09375 59.90625 40.109375 62.90625 
Q 36.140625 65.921875 28.71875 65.921875 
Q 24.65625 65.921875 20.015625 65.03125 
Q 15.375 64.15625 9.8125 62.3125 
L 9.8125 71.09375 
Q 15.4375 72.65625 20.34375 73.4375 
Q 25.25 74.21875 29.59375 74.21875 
Q 40.828125 74.21875 47.359375 69.109375 
Q 53.90625 64.015625 53.90625 55.328125 
Q 53.90625 49.265625 50.4375 45.09375 
Q 46.96875 40.921875 40.578125 39.3125 
z
" id="DejaVuSans-33"/>
      </defs>
      <g transform="translate(292.610833 204.878437)scale(0.1 -0.1)">
       <use xlink:href="#DejaVuSans-33"/>
       <use x="63.623047" xlink:href="#DejaVuSans-30"/>
      </g>
     </g>
    </g>
    <g id="xtick_8">
     <g id="line2d_15">
      <path clip-path="url(#pdefd32e653)" d="M 340.555556 190.28 
L 340.555556 13.32 
" style="fill:none;stroke:#808080;stroke-linecap:square;stroke-width:0.8;"/>
     </g>
     <g id="line2d_16">
      <g>
       <use style="stroke:#000000;stroke-width:0.8;" x="340.555556" xlink:href="#m66a85be285" y="190.28"/>
      </g>
     </g>
     <g id="text_8">
      <!-- 35 -->
      <g transform="translate(334.193056 204.878437)scale(0.1 -0.1)">
       <use xlink:href="#DejaVuSans-33"/>
       <use x="63.623047" xlink:href="#DejaVuSans-35"/>
      </g>
     </g>
    </g>
    <g id="xtick_9">
     <g id="line2d_17">
      <path clip-path="url(#pdefd32e653)" d="M 382.137778 190.28 
L 382.137778 13.32 
" style="fill:none;stroke:#808080;stroke-linecap:square;stroke-width:0.8;"/>
     </g>
     <g id="line2d_18">
      <g>
       <use style="stroke:#000000;stroke-width:0.8;" x="382.137778" xlink:href="#m66a85be285" y="190.28"/>
      </g>
     </g>
     <g id="text_9">
      <!-- 40 -->
      <defs>
       <path d="M 37.796875 64.3125 
L 12.890625 25.390625 
L 37.796875 25.390625 
z
M 35.203125 72.90625 
L 47.609375 72.90625 
L 47.609375 25.390625 
L 58.015625 25.390625 
L 58.015625 17.1875 
L 47.609375 17.1875 
L 47.609375 0 
L 37.796875 0 
L 37.796875 17.1875 
L 4.890625 17.1875 
L 4.890625 26.703125 
z
" id="DejaVuSans-34"/>
      </defs>
      <g transform="translate(375.775278 204.878437)scale(0.1 -0.1)">
       <use xlink:href="#DejaVuSans-34"/>
       <use x="63.623047" xlink:href="#DejaVuSans-30"/>
      </g>
     </g>
    </g>
    <g id="xtick_10">
     <g id="line2d_19">
      <path clip-path="url(#pdefd32e653)" d="M 423.72 190.28 
L 423.72 13.32 
" style="fill:none;stroke:#808080;stroke-linecap:square;stroke-width:0.8;"/>
     </g>
     <g id="line2d_20">
      <g>
       <use style="stroke:#000000;stroke-width:0.8;" x="423.72" xlink:href="#m66a85be285" y="190.28"/>
      </g>
     </g>
     <g id="text_10">
      <!-- 45 -->
      <g transform="translate(417.3575 204.878437)scale(0.1 -0.1)">
       <use xlink:href="#DejaVuSans-34"/>
       <use x="63.623047" xlink:href="#DejaVuSans-35"/>
      </g>
     </g>
    </g>
   </g>
   <g id="matplotlib.axis_2">
    <g id="ytick_1">
     <g id="line2d_21">
      <path clip-path="url(#pdefd32e653)" d="M 49.48 190.28 
L 423.72 190.28 
" style="fill:none;stroke:#808080;stroke-linecap:square;stroke-width:0.8;"/>
     </g>
     <g id="line2d_22">
      <defs>
       <path d="M 0 0 
L -3.5 0 
" id="m7a5ce518fa" style="stroke:#000000;stroke-width:0.8;"/>
      </defs>
      <g>
       <use style="stroke:#000000;stroke-width:0.8;" x="49.48" xlink:href="#m7a5ce518fa" y="190.28"/>
      </g>
     </g>
     <g id="text_11">
      <!-- 0 -->
      <g transform="translate(36.1175 194.079219)scale(0.1 -0.1)">
       <use xlink:href="#DejaVuSans-30"/>
      </g>
     </g>
    </g>
    <g id="ytick_2">
     <g id="line2d_23">
      <path clip-path="url(#pdefd32e653)" d="M 49.48 162.045853 
L 423.72 162.045853 
" style="fill:none;stroke:#808080;stroke-linecap:square;stroke-width:0.8;"/>
     </g>
     <g id="line2d_24">
      <g>
       <use style="stroke:#000000;stroke-width:0.8;" x="49.48" xlink:href="#m7a5ce518fa" y="162.045853"/>
      </g>
     </g>
     <g id="text_12">
      <!-- 5 -->
      <g transform="translate(36.1175 165.845072)scale(0.1 -0.1)">
       <use xlink:href="#DejaVuSans-35"/>
      </g>
     </g>
    </g>
    <g id="ytick_3">
     <g id="line2d_25">
      <path clip-path="url(#pdefd32e653)" d="M 49.48 133.811706 
L 423.72 133.811706 
" style="fill:none;stroke:#808080;stroke-linecap:square;stroke-width:0.8;"/>
     </g>
     <g id="line2d_26">
      <g>
       <use style="stroke:#000000;stroke-width:0.8;" x="49.48" xlink:href="#m7a5ce518fa" y="133.811706"/>
      </g>
     </g>
     <g id="text_13">
      <!-- 10 -->
      <g transform="translate(29.755 137.610924)scale(0.1 -0.1)">
       <use xlink:href="#DejaVuSans-31"/>
       <use x="63.623047" xlink:href="#DejaVuSans-30"/>
      </g>
     </g>
    </g>
    <g id="ytick_4">
     <g id="line2d_27">
      <path clip-path="url(#pdefd32e653)" d="M 49.48 105.577558 
L 423.72 105.577558 
" style="fill:none;stroke:#808080;stroke-linecap:square;stroke-width:0.8;"/>
     </g>
     <g id="line2d_28">
      <g>
       <use style="stroke:#000000;stroke-width:0.8;" x="49.48" xlink:href="#m7a5ce518fa" y="105.577558"/>
      </g>
     </g>
     <g id="text_14">
      <!-- 15 -->
      <g transform="translate(29.755 109.376777)scale(0.1 -0.1)">
       <use xlink:href="#DejaVuSans-31"/>
       <use x="63.623047" xlink:href="#DejaVuSans-35"/>
      </g>
     </g>
    </g>
    <g id="ytick_5">
     <g id="line2d_29">
      <path clip-path="url(#pdefd32e653)" d="M 49.48 77.343411 
L 423.72 77.343411 
" style="fill:none;stroke:#808080;stroke-linecap:square;stroke-width:0.8;"/>
     </g>
     <g id="line2d_30">
      <g>
       <use style="stroke:#000000;stroke-width:0.8;" x="49.48" xlink:href="#m7a5ce518fa" y="77.343411"/>
      </g>
     </g>
     <g id="text_15">
      <!-- 20 -->
      <g transform="translate(29.755 81.14263)scale(0.1 -0.1)">
       <use xlink:href="#DejaVuSans-32"/>
       <use x="63.623047" xlink:href="#DejaVuSans-30"/>
      </g>
     </g>
    </g>
    <g id="ytick_6">
     <g id="line2d_31">
      <path clip-path="url(#pdefd32e653)" d="M 49.48 49.109264 
L 423.72 49.109264 
" style="fill:none;stroke:#808080;stroke-linecap:square;stroke-width:0.8;"/>
     </g>
     <g id="line2d_32">
      <g>
       <use style="stroke:#000000;stroke-width:0.8;" x="49.48" xlink:href="#m7a5ce518fa" y="49.109264"/>
      </g>
     </g>
     <g id="text_16">
      <!-- 25 -->
      <g transform="translate(29.755 52.908483)scale(0.1 -0.1)">
       <use xlink:href="#DejaVuSans-32"/>
       <use x="63.623047" xlink:href="#DejaVuSans-35"/>
      </g>
     </g>
    </g>
    <g id="ytick_7">
     <g id="line2d_33">
      <path clip-path="url(#pdefd32e653)" d="M 49.48 20.875117 
L 423.72 20.875117 
" style="fill:none;stroke:#808080;stroke-linecap:square;stroke-width:0.8;"/>
     </g>
     <g id="line2d_34">
      <g>
       <use style="stroke:#000000;stroke-width:0.8;" x="49.48" xlink:href="#m7a5ce518fa" y="20.875117"/>
      </g>
     </g>
     <g id="text_17">
      <!-- 30 -->
      <g transform="translate(29.755 24.674336)scale(0.1 -0.1)">
       <use xlink:href="#DejaVuSans-33"/>
       <use x="63.623047" xlink:href="#DejaVuSans-30"/>
      </g>
     </g>
    </g>
   </g>
   <g id="line2d_35">
    <path clip-path="url(#pdefd32e653)" d="M 52.41182 120.767527 
L 56.091007 120.823997 
L 56.430618 120.654593 
L 56.431964 120.823997 
L 56.432198 120.767527 
L 57.308701 120.823997 
L 57.309516 120.654593 
L 57.629499 120.823997 
L 57.630373 120.767527 
L 57.944286 120.823997 
L 57.949516 120.767527 
L 59.084046 120.767527 
L 59.0863 120.654593 
L 59.084379 120.823997 
L 59.087089 120.767527 
L 61.252442 120.823997 
L 61.252541 120.654593 
L 61.253973 120.823997 
L 61.413897 120.654593 
L 61.659175 120.823997 
L 61.659292 120.767527 
L 68.087055 120.823997 
L 68.237091 120.654593 
L 68.237341 120.767527 
L 68.277127 120.823997 
L 69.257094 120.823997 
L 69.391597 120.654593 
L 69.392128 120.767527 
L 69.891781 120.823997 
L 69.891931 120.654593 
L 69.907016 120.767527 
L 79.714683 120.823997 
L 79.71484 120.654593 
L 79.715306 120.767527 
L 81.704725 120.767527 
L 81.872267 120.654593 
L 81.872593 120.823997 
L 81.879562 120.767527 
L 82.215438 120.823997 
L 82.218257 120.767527 
L 82.449338 120.823997 
L 82.449396 120.767527 
L 90.192828 120.767527 
L 90.387225 120.654593 
L 90.387725 120.767527 
L 90.387899 120.823997 
L 91.364598 120.767527 
L 91.385025 120.654593 
L 91.387369 120.767527 
L 95.678995 120.767527 
L 95.679079 120.654593 
L 96.007927 120.823997 
L 99.331496 120.767527 
L 99.331653 120.936936 
L 99.332535 120.823997 
L 103.324545 120.767527 
L 103.324629 120.654593 
L 103.324785 120.823997 
L 103.325009 120.823997 
L 108.331693 120.823997 
L 108.331777 120.654593 
L 108.495976 120.823997 
L 108.826446 120.767527 
L 109.153316 120.823997 
L 109.154089 120.767527 
L 109.157791 120.823997 
L 109.3123 120.767527 
L 109.312384 120.823997 
L 109.819987 120.823997 
L 109.820195 120.654593 
L 109.833002 120.767527 
L 127.122716 120.823997 
L 127.12289 120.654593 
L 127.123041 120.823997 
L 135.101512 120.823997 
L 135.107094 120.936936 
L 135.25827 120.767527 
L 135.258593 120.823997 
L 135.25866 120.936936 
L 135.258726 120.823997 
L 135.449356 120.823997 
L 135.452201 120.936936 
L 135.770162 120.767527 
L 135.771219 120.823997 
L 136.106164 120.823997 
L 136.109872 120.936936 
L 136.111345 120.767527 
L 136.128245 120.823997 
L 136.593216 120.823997 
L 136.765374 120.936936 
L 136.768303 120.767527 
L 136.775387 120.823997 
L 136.925691 120.767527 
L 136.925832 120.936936 
L 136.926066 120.823997 
L 137.258374 120.767527 
L 137.765827 120.823997 
L 137.768746 120.767527 
L 138.098219 120.823997 
L 138.101637 120.767527 
L 138.256089 120.823997 
L 138.256172 120.654593 
L 138.256323 120.767527 
L 138.919617 120.767527 
L 138.919693 120.654593 
L 138.919826 120.767527 
L 141.76982 120.767527 
L 141.915309 120.654593 
L 141.915708 120.767527 
L 143.246215 120.823997 
L 143.246371 120.654593 
L 143.246813 120.767527 
L 143.577326 120.823997 
L 143.577399 120.767527 
L 144.077035 120.823997 
L 144.077259 120.654593 
L 144.089777 120.823997 
L 144.420604 120.767527 
L 144.438993 120.823997 
L 144.451833 120.767527 
L 144.746425 120.823997 
L 144.751067 120.767527 
L 146.423172 120.823997 
L 146.423354 120.654593 
L 146.440003 120.767527 
L 146.579628 120.767527 
L 146.740127 120.654593 
L 146.740435 120.767527 
L 146.740585 120.823997 
L 146.747779 120.767527 
L 146.904993 120.767527 
L 146.905076 120.654593 
L 146.905375 120.767527 
L 147.238398 120.823997 
L 147.238715 120.767527 
L 147.746626 120.767527 
L 147.749003 120.654593 
L 147.766093 120.767527 
L 148.403367 120.823997 
L 148.408098 120.654593 
L 148.754004 120.823997 
L 149.068799 120.767527 
L 149.078737 120.823997 
L 149.40292 120.767527 
L 149.407135 120.823997 
L 152.2277 120.823997 
L 152.227774 120.936936 
L 152.227841 120.823997 
L 160.722448 120.823997 
L 160.724028 120.936936 
L 160.740013 120.823997 
L 162.207541 120.823997 
L 162.207607 120.936936 
L 162.539949 120.823997 
L 162.872348 120.767527 
L 163.380584 120.823997 
L 163.381566 120.767527 
L 166.197662 120.767527 
L 166.197737 120.654593 
L 166.375326 120.823997 
L 166.702081 120.767527 
L 166.706297 120.823997 
L 166.713042 120.767527 
L 166.865481 120.823997 
L 166.865624 120.767527 
L 167.861857 120.767527 
L 167.861933 120.654593 
L 167.862084 120.767527 
L 169.368024 120.823997 
L 169.368157 120.936936 
L 169.369198 120.767527 
L 169.703943 120.823997 
L 169.708765 120.767527 
L 171.519555 120.823997 
L 171.519729 120.936936 
L 171.519914 120.767527 
L 171.52013 120.767527 
L 172.028413 120.823997 
L 172.036539 120.767527 
L 173.523786 120.823997 
L 173.69434 120.936936 
L 173.694538 120.823997 
L 173.697191 120.767527 
L 173.700019 120.823997 
L 173.849075 120.767527 
L 174.35928 120.823997 
L 178.349228 120.823997 
L 178.349361 120.654593 
L 178.351939 120.823997 
L 178.677278 120.654593 
L 178.677793 120.823997 
L 184.834615 120.823997 
L 184.835456 120.654593 
L 184.835529 120.767527 
L 196.80153 120.823997 
L 196.801605 120.936936 
L 196.801746 120.767527 
L 196.801821 120.823997 
L 198.304661 120.823997 
L 198.304778 120.654593 
L 198.309759 120.823997 
L 198.47464 120.767527 
L 198.474723 120.936936 
L 198.474939 120.767527 
L 198.800371 120.823997 
L 199.132729 120.767527 
L 199.643333 120.823997 
L 199.971934 120.767527 
L 199.976117 120.823997 
L 199.979651 120.767527 
L 200.299376 120.823997 
L 200.299535 120.767527 
L 200.299951 120.823997 
L 204.454123 120.767527 
L 204.454271 120.936936 
L 204.45468 120.823997 
L 206.116196 120.823997 
L 206.116264 120.936936 
L 206.449237 120.654593 
L 206.449304 120.823997 
L 210.110751 120.767527 
L 210.110818 120.654593 
L 210.110876 120.823997 
L 210.110993 120.823997 
L 213.938112 120.823997 
L 213.938271 120.936936 
L 213.942145 120.823997 
L 219.276081 120.823997 
L 219.276238 120.936936 
L 219.276571 120.823997 
L 219.620106 120.767527 
L 219.629754 120.823997 
L 235.732728 120.823997 
L 235.732793 120.936936 
L 235.732868 120.767527 
L 236.230318 120.823997 
L 245.719895 120.767527 
L 245.720053 120.936936 
L 245.720371 120.767527 
L 246.036503 120.823997 
L 246.203588 120.767527 
L 246.203754 120.823997 
L 246.204702 120.936936 
L 246.204827 120.767527 
L 246.211564 120.767527 
L 246.541569 120.823997 
L 246.542233 120.767527 
L 246.86902 120.823997 
L 246.875349 120.767527 
L 246.875481 120.654593 
L 246.876156 120.823997 
L 246.878525 120.823997 
L 257.345636 120.823997 
L 257.345727 120.936936 
L 257.345878 120.767527 
L 257.345943 120.823997 
L 259.344701 120.823997 
L 259.344777 120.936936 
L 259.344842 120.767527 
L 259.344918 120.823997 
L 260.856356 120.767527 
L 260.857986 120.936936 
L 260.880424 120.823997 
L 263.004794 120.767527 
L 263.004961 120.654593 
L 263.005036 120.823997 
L 263.005343 120.823997 
L 264.334062 120.767527 
L 264.334135 120.936936 
L 264.667052 120.767527 
L 264.667126 120.823997 
L 265.49803 120.823997 
L 265.500625 120.936936 
L 265.500742 120.823997 
L 265.663585 120.823997 
L 265.663702 120.936936 
L 265.663918 120.767527 
L 265.664051 120.823997 
L 266.004435 120.767527 
L 266.004511 120.936936 
L 266.004777 120.823997 
L 267.325336 120.823997 
L 267.325403 120.936936 
L 267.325478 120.823997 
L 268.835353 120.823997 
L 268.83552 120.936936 
L 268.849482 120.767527 
L 268.851453 120.823997 
L 269.491844 120.823997 
L 269.493359 120.654593 
L 269.494115 120.823997 
L 269.657202 120.767527 
L 269.657267 120.936936 
L 269.657342 120.767527 
L 270.164412 120.823997 
L 270.16472 120.767527 
L 270.322334 120.823997 
L 270.654526 120.767527 
L 271.157862 120.823997 
L 271.16182 120.767527 
L 271.491251 120.823997 
L 271.492707 120.767527 
L 272.843904 120.823997 
L 272.844013 120.654593 
L 272.845185 120.767527 
L 272.981484 120.823997 
L 273.484029 120.767527 
L 273.491814 120.823997 
L 275.48742 120.823997 
L 275.493499 120.936936 
L 275.500268 120.823997 
L 275.643602 120.767527 
L 275.643959 120.823997 
L 277.810494 120.823997 
L 277.81066 120.936936 
L 277.814993 120.767527 
L 277.970743 120.823997 
L 277.970809 120.936936 
L 277.970951 120.823997 
L 278.306785 120.767527 
L 278.306918 120.823997 
L 281.800906 120.767527 
L 281.801539 120.936936 
L 281.963019 120.767527 
L 281.963152 120.823997 
L 281.96321 120.654593 
L 282.155196 120.823997 
L 282.155454 120.767527 
L 282.471537 120.823997 
L 284.154252 120.767527 
L 284.15565 120.936936 
L 284.46418 120.767527 
L 284.467765 120.823997 
L 294.939192 120.767527 
L 294.939276 120.654593 
L 294.939341 120.823997 
L 294.939484 120.823997 
L 295.272923 120.767527 
L 295.27299 120.823997 
L 297.598699 120.823997 
L 297.598866 120.936936 
L 297.598915 120.767527 
L 298.101221 120.823997 
L 298.10547 120.767527 
L 298.434402 120.823997 
L 298.436349 120.767527 
L 298.780092 120.823997 
L 298.932573 120.767527 
L 299.430695 120.823997 
L 299.786281 120.767527 
L 299.786406 120.823997 
L 299.929241 120.823997 
L 300.099138 120.936936 
L 300.110099 120.767527 
L 300.261309 120.823997 
L 300.602957 120.767527 
L 300.603797 120.936936 
L 300.605318 120.823997 
L 311.902934 120.823997 
L 311.903034 120.936936 
L 311.903341 120.823997 
L 318.058824 120.823997 
L 318.059148 120.936936 
L 318.068853 120.767527 
L 318.390268 120.823997 
L 318.392838 120.767527 
L 318.395674 120.823997 
L 318.555574 120.767527 
L 318.555632 120.936936 
L 318.746785 120.767527 
L 319.068781 120.823997 
L 319.091202 120.767527 
L 319.091561 120.823997 
L 319.393323 120.823997 
L 319.39551 120.936936 
L 319.724525 120.767527 
L 319.739063 120.823997 
L 319.891893 120.767527 
L 319.892027 120.823997 
L 320.56654 120.823997 
L 320.720136 120.936936 
L 320.72081 120.823997 
L 323.885374 120.823997 
L 323.885434 120.936936 
L 324.214316 120.767527 
L 324.214524 120.823997 
L 326.209057 120.823997 
L 326.37581 120.936936 
L 326.375959 120.823997 
L 326.376042 120.767527 
L 326.376118 120.936936 
L 326.378711 120.823997 
L 326.542196 120.767527 
L 326.542595 120.823997 
L 326.733758 120.767527 
L 326.874654 120.936936 
L 326.875054 120.823997 
L 327.711954 120.823997 
L 327.712053 120.936936 
L 327.715646 120.823997 
L 330.202138 120.823997 
L 330.202206 120.936936 
L 330.202271 120.823997 
L 330.533973 120.823997 
L 330.534032 120.936936 
L 330.53409 120.767527 
L 330.534147 120.823997 
L 333.193498 120.823997 
L 333.193573 120.936936 
L 333.193755 120.823997 
L 335.192296 120.823997 
L 335.358942 120.936936 
L 335.359116 120.823997 
L 335.360082 120.767527 
L 335.384214 120.823997 
L 335.530227 120.823997 
L 335.530376 120.936936 
L 335.530652 120.823997 
L 336.195818 120.823997 
L 336.195951 120.936936 
L 336.196092 120.767527 
L 336.196282 120.823997 
L 338.186066 120.823997 
L 338.186258 120.936936 
L 338.186623 120.823997 
L 340.687637 120.823997 
L 340.689749 120.936936 
L 340.695844 120.823997 
L 341.510815 120.823997 
L 341.51089 120.936936 
L 341.51108 120.767527 
L 341.852238 120.823997 
L 342.175648 120.767527 
L 342.175773 120.823997 
L 344.182997 120.767527 
L 344.183063 120.936936 
L 344.50659 120.767527 
L 345.033262 120.823997 
L 345.034227 120.767527 
L 345.034467 120.823997 
L 348.511232 120.823997 
L 348.51129 120.936936 
L 348.839175 120.767527 
L 348.839441 120.823997 
L 349.504141 120.823997 
L 349.504258 120.936936 
L 349.504599 120.767527 
L 349.829047 120.823997 
L 350.161681 120.823997 
L 350.161739 120.936936 
L 350.161864 120.823997 
L 350.356211 120.823997 
L 350.49443 120.936936 
L 350.494571 120.823997 
L 350.494836 120.767527 
L 350.997491 120.936936 
L 350.997641 120.767527 
L 351.000518 120.823997 
L 352.159125 120.823997 
L 352.159274 120.936936 
L 352.159724 120.823997 
L 352.326243 120.823997 
L 352.326834 120.936936 
L 352.327042 120.823997 
L 352.488122 120.823997 
L 352.488182 120.936936 
L 352.488305 120.823997 
L 353.155077 120.823997 
L 353.319784 120.936936 
L 353.320216 120.823997 
L 353.320807 120.767527 
L 353.321039 120.823997 
L 354.152351 120.767527 
L 354.32402 120.936936 
L 354.332677 120.823997 
L 354.332809 120.767527 
L 354.332918 120.823997 
L 354.819512 120.823997 
L 354.819572 120.936936 
L 354.819762 120.823997 
L 355.651348 120.823997 
L 355.654433 120.936936 
L 355.654717 120.823997 
L 356.481929 120.823997 
L 356.48207 120.936936 
L 356.813415 120.767527 
L 356.813472 120.823997 
L 359.141743 120.767527 
L 359.141834 120.936936 
L 359.141969 120.823997 
L 359.498569 120.823997 
L 359.498627 120.936936 
L 359.811533 120.767527 
L 359.811882 120.823997 
L 359.982254 120.767527 
L 359.982403 120.936936 
L 359.982944 120.823997 
L 360.474554 120.823997 
L 360.47463 120.936936 
L 360.474877 120.823997 
L 362.640829 120.767527 
L 362.641021 120.936936 
L 362.64508 120.823997 
L 363.466661 120.823997 
L 363.466802 120.654593 
L 363.467119 120.936936 
L 363.467169 120.823997 
L 365.79677 120.823997 
L 365.79683 120.936936 
L 365.796945 120.823997 
L 365.96483 120.823997 
L 365.964979 120.936936 
L 365.965236 120.767527 
L 365.966101 120.823997 
L 366.296647 120.823997 
L 366.296789 120.936936 
L 366.320432 120.823997 
L 367.015844 120.823997 
L 367.016411 120.936936 
L 367.016859 120.767527 
L 367.46806 120.823997 
L 367.644235 120.823997 
L 367.644925 120.936936 
L 367.645592 120.823997 
L 367.790928 120.767527 
L 367.791353 120.823997 
L 368.455605 120.823997 
L 368.45567 120.936936 
L 368.45573 120.767527 
L 368.455787 120.823997 
L 369.796539 120.823997 
L 369.796607 120.936936 
L 370.128905 120.767527 
L 370.129173 120.823997 
L 370.307327 120.823997 
L 370.312451 120.936936 
L 370.315445 120.767527 
L 370.629682 120.823997 
L 370.638787 120.767527 
L 370.955628 120.823997 
L 370.956932 120.767527 
L 370.969507 120.823997 
L 371.953991 120.823997 
L 371.958192 120.936936 
L 371.960994 120.823997 
L 372.949387 120.823997 
L 372.949494 120.936936 
L 372.954951 120.823997 
L 373.112738 120.823997 
L 373.112797 120.936936 
L 373.112922 120.823997 
L 373.292649 120.823997 
L 373.298603 120.936936 
L 373.615926 120.767527 
L 373.616283 120.823997 
L 374.277931 120.823997 
L 374.278015 120.936936 
L 374.278239 120.823997 
L 374.786855 120.823997 
L 374.786923 120.936936 
L 374.787121 120.823997 
L 375.111429 120.823997 
L 375.111504 120.936936 
L 375.111629 120.823997 
L 375.278424 120.823997 
L 375.283305 120.936936 
L 375.284253 120.767527 
L 375.304537 120.823997 
L 375.444529 120.767527 
L 375.445018 120.823997 
L 376.110775 120.823997 
L 376.111208 120.936936 
L 376.112372 120.823997 
L 376.29831 120.823997 
L 376.29896 120.936936 
L 376.338844 120.823997 
L 376.450468 120.823997 
L 376.460408 120.936936 
L 376.51083 120.823997 
L 377.439127 120.823997 
L 377.439236 120.936936 
L 377.439294 120.823997 
L 378.43538 120.823997 
L 378.435503 120.936936 
L 378.769267 120.823997 
L 379.102208 120.823997 
L 379.267032 120.823997 
L 379.267198 120.936936 
L 379.26912 120.823997 
L 380.275142 120.823997 
L 380.275301 120.936936 
L 380.289032 120.823997 
L 382.761202 120.823997 
L 382.761262 120.936936 
L 382.761319 120.823997 
L 382.927148 120.936936 
L 382.943923 120.823997 
L 383.618378 120.823997 
L 383.626587 120.936936 
L 383.629407 120.823997 
L 385.091629 120.823997 
L 385.091769 120.936936 
L 385.092027 120.823997 
L 385.594783 120.823997 
L 385.594923 120.936936 
L 385.597251 120.767527 
L 385.605353 120.823997 
L 386.588381 120.767527 
L 386.588472 120.936936 
L 386.590493 120.823997 
L 387.086053 120.823997 
L 387.086112 120.936936 
L 387.418379 120.823997 
L 387.604932 120.823997 
L 387.605041 120.936936 
L 387.605947 120.823997 
L 387.750305 120.767527 
L 387.750961 120.823997 
L 388.25191 120.823997 
L 388.253092 120.936936 
L 388.269375 120.823997 
L 389.080046 120.823997 
L 389.08012 120.936936 
L 389.080312 120.767527 
L 389.080369 120.823997 
L 389.412787 120.823997 
L 389.582958 120.936936 
L 389.583115 120.823997 
L 389.583198 120.767527 
L 389.590243 120.823997 
L 389.749136 120.767527 
L 389.749204 120.936936 
L 389.749428 120.823997 
L 390.271884 120.823997 
L 390.271976 120.936936 
L 390.273064 120.823997 
L 391.743503 120.823997 
L 391.74357 120.936936 
L 391.743745 120.823997 
L 393.737463 120.823997 
L 393.73752 120.936936 
L 394.096716 120.823997 
L 395.239363 120.823997 
L 395.23948 120.936936 
L 395.40535 120.767527 
L 395.405467 120.823997 
L 395.573085 120.936936 
L 395.576454 120.823997 
L 395.91494 120.823997 
L 395.915032 120.936936 
L 395.924339 120.823997 
L 396.077127 120.823997 
L 396.077194 120.936936 
L 396.077319 120.823997 
L 396.401385 120.823997 
L 396.401445 120.936936 
L 396.750835 120.767527 
L 396.776683 120.823997 
L 397.23526 120.823997 
L 397.235333 120.936936 
L 397.243344 120.823997 
L 397.901681 120.823997 
L 397.901806 120.936936 
L 397.903868 120.823997 
L 399.068562 120.823997 
L 399.068695 120.936936 
L 399.072827 120.823997 
L 399.726168 120.823997 
L 399.726316 120.936936 
L 399.726501 120.823997 
" style="fill:none;stroke:#0000ff;stroke-linecap:square;"/>
   </g>
   <g id="line2d_36">
    <path clip-path="url(#pdefd32e653)" d="M 0 0 
" style="fill:none;stroke:#ff0000;stroke-linecap:square;"/>
   </g>
   <g id="patch_3">
    <path d="M 49.48 190.28 
L 49.48 13.32 
" style="fill:none;stroke:#000000;stroke-linecap:square;stroke-linejoin:miter;stroke-width:0.8;"/>
   </g>
   <g id="patch_4">
    <path d="M 423.72 190.28 
L 423.72 13.32 
" style="fill:none;stroke:#000000;stroke-linecap:square;stroke-linejoin:miter;stroke-width:0.8;"/>
   </g>
   <g id="patch_5">
    <path d="M 49.48 190.28 
L 423.72 190.28 
" style="fill:none;stroke:#000000;stroke-linecap:square;stroke-linejoin:miter;stroke-width:0.8;"/>
   </g>
   <g id="patch_6">
    <path d="M 49.48 13.32 
L 423.72 13.32 
" style="fill:none;stroke:#000000;stroke-linecap:square;stroke-linejoin:miter;stroke-width:0.8;"/>
   </g>
   <g id="legend_1">
    <g id="patch_7">
     <path d="M 56.48 51.2325 
L 234.747187 51.2325 
Q 236.747187 51.2325 236.747187 49.2325 
L 236.747187 20.32 
Q 236.747187 18.32 234.747187 18.32 
L 56.48 18.32 
Q 54.48 18.32 54.48 20.32 
L 54.48 49.2325 
Q 54.48 51.2325 56.48 51.2325 
z
" style="fill:#ffffff;opacity:0.8;stroke:#cccccc;stroke-linejoin:miter;"/>
    </g>
    <g id="line2d_37">
     <path d="M 58.48 26.418437 
L 78.48 26.418437 
" style="fill:none;stroke:#ff0000;stroke-linecap:square;"/>
    </g>
    <g id="line2d_38"/>
    <g id="text_18">
     <!-- /sensor_data/accelZ -->
     <defs>
      <path d="M 25.390625 72.90625 
L 33.6875 72.90625 
L 8.296875 -9.28125 
L 0 -9.28125 
z
" id="DejaVuSans-2f"/>
      <path d="M 44.28125 53.078125 
L 44.28125 44.578125 
Q 40.484375 46.53125 36.375 47.5 
Q 32.28125 48.484375 27.875 48.484375 
Q 21.1875 48.484375 17.84375 46.4375 
Q 14.5 44.390625 14.5 40.28125 
Q 14.5 37.15625 16.890625 35.375 
Q 19.28125 33.59375 26.515625 31.984375 
L 29.59375 31.296875 
Q 39.15625 29.25 43.1875 25.515625 
Q 47.21875 21.78125 47.21875 15.09375 
Q 47.21875 7.46875 41.1875 3.015625 
Q 35.15625 -1.421875 24.609375 -1.421875 
Q 20.21875 -1.421875 15.453125 -0.5625 
Q 10.6875 0.296875 5.421875 2 
L 5.421875 11.28125 
Q 10.40625 8.6875 15.234375 7.390625 
Q 20.0625 6.109375 24.8125 6.109375 
Q 31.15625 6.109375 34.5625 8.28125 
Q 37.984375 10.453125 37.984375 14.40625 
Q 37.984375 18.0625 35.515625 20.015625 
Q 33.0625 21.96875 24.703125 23.78125 
L 21.578125 24.515625 
Q 13.234375 26.265625 9.515625 29.90625 
Q 5.8125 33.546875 5.8125 39.890625 
Q 5.8125 47.609375 11.28125 51.796875 
Q 16.75 56 26.8125 56 
Q 31.78125 56 36.171875 55.265625 
Q 40.578125 54.546875 44.28125 53.078125 
z
" id="DejaVuSans-73"/>
      <path d="M 56.203125 29.59375 
L 56.203125 25.203125 
L 14.890625 25.203125 
Q 15.484375 15.921875 20.484375 11.0625 
Q 25.484375 6.203125 34.421875 6.203125 
Q 39.59375 6.203125 44.453125 7.46875 
Q 49.3125 8.734375 54.109375 11.28125 
L 54.109375 2.78125 
Q 49.265625 0.734375 44.1875 -0.34375 
Q 39.109375 -1.421875 33.890625 -1.421875 
Q 20.796875 -1.421875 13.15625 6.1875 
Q 5.515625 13.8125 5.515625 26.8125 
Q 5.515625 40.234375 12.765625 48.109375 
Q 20.015625 56 32.328125 56 
Q 43.359375 56 49.78125 48.890625 
Q 56.203125 41.796875 56.203125 29.59375 
z
M 47.21875 32.234375 
Q 47.125 39.59375 43.09375 43.984375 
Q 39.0625 48.390625 32.421875 48.390625 
Q 24.90625 48.390625 20.390625 44.140625 
Q 15.875 39.890625 15.1875 32.171875 
z
" id="DejaVuSans-65"/>
      <path d="M 54.890625 33.015625 
L 54.890625 0 
L 45.90625 0 
L 45.90625 32.71875 
Q 45.90625 40.484375 42.875 44.328125 
Q 39.84375 48.1875 33.796875 48.1875 
Q 26.515625 48.1875 22.3125 43.546875 
Q 18.109375 38.921875 18.109375 30.90625 
L 18.109375 0 
L 9.078125 0 
L 9.078125 54.6875 
L 18.109375 54.6875 
L 18.109375 46.1875 
Q 21.34375 51.125 25.703125 53.5625 
Q 30.078125 56 35.796875 56 
Q 45.21875 56 50.046875 50.171875 
Q 54.890625 44.34375 54.890625 33.015625 
z
" id="DejaVuSans-6e"/>
      <path d="M 30.609375 48.390625 
Q 23.390625 48.390625 19.1875 42.75 
Q 14.984375 37.109375 14.984375 27.296875 
Q 14.984375 17.484375 19.15625 11.84375 
Q 23.34375 6.203125 30.609375 6.203125 
Q 37.796875 6.203125 41.984375 11.859375 
Q 46.1875 17.53125 46.1875 27.296875 
Q 46.1875 37.015625 41.984375 42.703125 
Q 37.796875 48.390625 30.609375 48.390625 
z
M 30.609375 56 
Q 42.328125 56 49.015625 48.375 
Q 55.71875 40.765625 55.71875 27.296875 
Q 55.71875 13.875 49.015625 6.21875 
Q 42.328125 -1.421875 30.609375 -1.421875 
Q 18.84375 -1.421875 12.171875 6.21875 
Q 5.515625 13.875 5.515625 27.296875 
Q 5.515625 40.765625 12.171875 48.375 
Q 18.84375 56 30.609375 56 
z
" id="DejaVuSans-6f"/>
      <path d="M 41.109375 46.296875 
Q 39.59375 47.171875 37.8125 47.578125 
Q 36.03125 48 33.890625 48 
Q 26.265625 48 22.1875 43.046875 
Q 18.109375 38.09375 18.109375 28.8125 
L 18.109375 0 
L 9.078125 0 
L 9.078125 54.6875 
L 18.109375 54.6875 
L 18.109375 46.1875 
Q 20.953125 51.171875 25.484375 53.578125 
Q 30.03125 56 36.53125 56 
Q 37.453125 56 38.578125 55.875 
Q 39.703125 55.765625 41.0625 55.515625 
z
" id="DejaVuSans-72"/>
      <path d="M 50.984375 -16.609375 
L 50.984375 -23.578125 
L -0.984375 -23.578125 
L -0.984375 -16.609375 
z
" id="DejaVuSans-5f"/>
      <path d="M 45.40625 46.390625 
L 45.40625 75.984375 
L 54.390625 75.984375 
L 54.390625 0 
L 45.40625 0 
L 45.40625 8.203125 
Q 42.578125 3.328125 38.25 0.953125 
Q 33.9375 -1.421875 27.875 -1.421875 
Q 17.96875 -1.421875 11.734375 6.484375 
Q 5.515625 14.40625 5.515625 27.296875 
Q 5.515625 40.1875 11.734375 48.09375 
Q 17.96875 56 27.875 56 
Q 33.9375 56 38.25 53.625 
Q 42.578125 51.265625 45.40625 46.390625 
z
M 14.796875 27.296875 
Q 14.796875 17.390625 18.875 11.75 
Q 22.953125 6.109375 30.078125 6.109375 
Q 37.203125 6.109375 41.296875 11.75 
Q 45.40625 17.390625 45.40625 27.296875 
Q 45.40625 37.203125 41.296875 42.84375 
Q 37.203125 48.484375 30.078125 48.484375 
Q 22.953125 48.484375 18.875 42.84375 
Q 14.796875 37.203125 14.796875 27.296875 
z
" id="DejaVuSans-64"/>
      <path d="M 34.28125 27.484375 
Q 23.390625 27.484375 19.1875 25 
Q 14.984375 22.515625 14.984375 16.5 
Q 14.984375 11.71875 18.140625 8.90625 
Q 21.296875 6.109375 26.703125 6.109375 
Q 34.1875 6.109375 38.703125 11.40625 
Q 43.21875 16.703125 43.21875 25.484375 
L 43.21875 27.484375 
z
M 52.203125 31.203125 
L 52.203125 0 
L 43.21875 0 
L 43.21875 8.296875 
Q 40.140625 3.328125 35.546875 0.953125 
Q 30.953125 -1.421875 24.3125 -1.421875 
Q 15.921875 -1.421875 10.953125 3.296875 
Q 6 8.015625 6 15.921875 
Q 6 25.140625 12.171875 29.828125 
Q 18.359375 34.515625 30.609375 34.515625 
L 43.21875 34.515625 
L 43.21875 35.40625 
Q 43.21875 41.609375 39.140625 45 
Q 35.0625 48.390625 27.6875 48.390625 
Q 23 48.390625 18.546875 47.265625 
Q 14.109375 46.140625 10.015625 43.890625 
L 10.015625 52.203125 
Q 14.9375 54.109375 19.578125 55.046875 
Q 24.21875 56 28.609375 56 
Q 40.484375 56 46.34375 49.84375 
Q 52.203125 43.703125 52.203125 31.203125 
z
" id="DejaVuSans-61"/>
      <path d="M 18.3125 70.21875 
L 18.3125 54.6875 
L 36.8125 54.6875 
L 36.8125 47.703125 
L 18.3125 47.703125 
L 18.3125 18.015625 
Q 18.3125 11.328125 20.140625 9.421875 
Q 21.96875 7.515625 27.59375 7.515625 
L 36.8125 7.515625 
L 36.8125 0 
L 27.59375 0 
Q 17.1875 0 13.234375 3.875 
Q 9.28125 7.765625 9.28125 18.015625 
L 9.28125 47.703125 
L 2.6875 47.703125 
L 2.6875 54.6875 
L 9.28125 54.6875 
L 9.28125 70.21875 
z
" id="DejaVuSans-74"/>
      <path d="M 48.78125 52.59375 
L 48.78125 44.1875 
Q 44.96875 46.296875 41.140625 47.34375 
Q 37.3125 48.390625 33.40625 48.390625 
Q 24.65625 48.390625 19.8125 42.84375 
Q 14.984375 37.3125 14.984375 27.296875 
Q 14.984375 17.28125 19.8125 11.734375 
Q 24.65625 6.203125 33.40625 6.203125 
Q 37.3125 6.203125 41.140625 7.25 
Q 44.96875 8.296875 48.78125 10.40625 
L 48.78125 2.09375 
Q 45.015625 0.34375 40.984375 -0.53125 
Q 36.96875 -1.421875 32.421875 -1.421875 
Q 20.0625 -1.421875 12.78125 6.34375 
Q 5.515625 14.109375 5.515625 27.296875 
Q 5.515625 40.671875 12.859375 48.328125 
Q 20.21875 56 33.015625 56 
Q 37.15625 56 41.109375 55.140625 
Q 45.0625 54.296875 48.78125 52.59375 
z
" id="DejaVuSans-63"/>
      <path d="M 9.421875 75.984375 
L 18.40625 75.984375 
L 18.40625 0 
L 9.421875 0 
z
" id="DejaVuSans-6c"/>
      <path d="M 5.609375 72.90625 
L 62.890625 72.90625 
L 62.890625 65.375 
L 16.796875 8.296875 
L 64.015625 8.296875 
L 64.015625 0 
L 4.5 0 
L 4.5 7.515625 
L 50.59375 64.59375 
L 5.609375 64.59375 
z
" id="DejaVuSans-5a"/>
     </defs>
     <g transform="translate(86.48 29.918437)scale(0.1 -0.1)">
      <use xlink:href="#DejaVuSans-2f"/>
      <use x="33.691406" xlink:href="#DejaVuSans-73"/>
      <use x="85.791016" xlink:href="#DejaVuSans-65"/>
      <use x="147.314453" xlink:href="#DejaVuSans-6e"/>
      <use x="210.693359" xlink:href="#DejaVuSans-73"/>
      <use x="262.792969" xlink:href="#DejaVuSans-6f"/>
      <use x="323.974609" xlink:href="#DejaVuSans-72"/>
      <use x="365.087891" xlink:href="#DejaVuSans-5f"/>
      <use x="415.087891" xlink:href="#DejaVuSans-64"/>
      <use x="478.564453" xlink:href="#DejaVuSans-61"/>
      <use x="539.84375" xlink:href="#DejaVuSans-74"/>
      <use x="579.052734" xlink:href="#DejaVuSans-61"/>
      <use x="640.332031" xlink:href="#DejaVuSans-2f"/>
      <use x="674.023438" xlink:href="#DejaVuSans-61"/>
      <use x="735.302734" xlink:href="#DejaVuSans-63"/>
      <use x="790.283203" xlink:href="#DejaVuSans-63"/>
      <use x="845.263672" xlink:href="#DejaVuSans-65"/>
      <use x="906.787109" xlink:href="#DejaVuSans-6c"/>
      <use x="934.570312" xlink:href="#DejaVuSans-5a"/>
     </g>
    </g>
    <g id="line2d_39">
     <path d="M 58.48 41.374687 
L 78.48 41.374687 
" style="fill:none;stroke:#0000ff;stroke-linecap:square;"/>
    </g>
    <g id="line2d_40"/>
    <g id="text_19">
     <!-- /sensor_data/battery_voltage -->
     <defs>
      <path d="M 48.6875 27.296875 
Q 48.6875 37.203125 44.609375 42.84375 
Q 40.53125 48.484375 33.40625 48.484375 
Q 26.265625 48.484375 22.1875 42.84375 
Q 18.109375 37.203125 18.109375 27.296875 
Q 18.109375 17.390625 22.1875 11.75 
Q 26.265625 6.109375 33.40625 6.109375 
Q 40.53125 6.109375 44.609375 11.75 
Q 48.6875 17.390625 48.6875 27.296875 
z
M 18.109375 46.390625 
Q 20.953125 51.265625 25.265625 53.625 
Q 29.59375 56 35.59375 56 
Q 45.5625 56 51.78125 48.09375 
Q 58.015625 40.1875 58.015625 27.296875 
Q 58.015625 14.40625 51.78125 6.484375 
Q 45.5625 -1.421875 35.59375 -1.421875 
Q 29.59375 -1.421875 25.265625 0.953125 
Q 20.953125 3.328125 18.109375 8.203125 
L 18.109375 0 
L 9.078125 0 
L 9.078125 75.984375 
L 18.109375 75.984375 
z
" id="DejaVuSans-62"/>
      <path d="M 32.171875 -5.078125 
Q 28.375 -14.84375 24.75 -17.8125 
Q 21.140625 -20.796875 15.09375 -20.796875 
L 7.90625 -20.796875 
L 7.90625 -13.28125 
L 13.1875 -13.28125 
Q 16.890625 -13.28125 18.9375 -11.515625 
Q 21 -9.765625 23.484375 -3.21875 
L 25.09375 0.875 
L 2.984375 54.6875 
L 12.5 54.6875 
L 29.59375 11.921875 
L 46.6875 54.6875 
L 56.203125 54.6875 
z
" id="DejaVuSans-79"/>
      <path d="M 2.984375 54.6875 
L 12.5 54.6875 
L 29.59375 8.796875 
L 46.6875 54.6875 
L 56.203125 54.6875 
L 35.6875 0 
L 23.484375 0 
z
" id="DejaVuSans-76"/>
      <path d="M 45.40625 27.984375 
Q 45.40625 37.75 41.375 43.109375 
Q 37.359375 48.484375 30.078125 48.484375 
Q 22.859375 48.484375 18.828125 43.109375 
Q 14.796875 37.75 14.796875 27.984375 
Q 14.796875 18.265625 18.828125 12.890625 
Q 22.859375 7.515625 30.078125 7.515625 
Q 37.359375 7.515625 41.375 12.890625 
Q 45.40625 18.265625 45.40625 27.984375 
z
M 54.390625 6.78125 
Q 54.390625 -7.171875 48.1875 -13.984375 
Q 42 -20.796875 29.203125 -20.796875 
Q 24.46875 -20.796875 20.265625 -20.09375 
Q 16.0625 -19.390625 12.109375 -17.921875 
L 12.109375 -9.1875 
Q 16.0625 -11.328125 19.921875 -12.34375 
Q 23.78125 -13.375 27.78125 -13.375 
Q 36.625 -13.375 41.015625 -8.765625 
Q 45.40625 -4.15625 45.40625 5.171875 
L 45.40625 9.625 
Q 42.625 4.78125 38.28125 2.390625 
Q 33.9375 0 27.875 0 
Q 17.828125 0 11.671875 7.65625 
Q 5.515625 15.328125 5.515625 27.984375 
Q 5.515625 40.671875 11.671875 48.328125 
Q 17.828125 56 27.875 56 
Q 33.9375 56 38.28125 53.609375 
Q 42.625 51.21875 45.40625 46.390625 
L 45.40625 54.6875 
L 54.390625 54.6875 
z
" id="DejaVuSans-67"/>
     </defs>
     <g transform="translate(86.48 44.874687)scale(0.1 -0.1)">
      <use xlink:href="#DejaVuSans-2f"/>
      <use x="33.691406" xlink:href="#DejaVuSans-73"/>
      <use x="85.791016" xlink:href="#DejaVuSans-65"/>
      <use x="147.314453" xlink:href="#DejaVuSans-6e"/>
      <use x="210.693359" xlink:href="#DejaVuSans-73"/>
      <use x="262.792969" xlink:href="#DejaVuSans-6f"/>
      <use x="323.974609" xlink:href="#DejaVuSans-72"/>
      <use x="365.087891" xlink:href="#DejaVuSans-5f"/>
      <use x="415.087891" xlink:href="#DejaVuSans-64"/>
      <use x="478.564453" xlink:href="#DejaVuSans-61"/>
      <use x="539.84375" xlink:href="#DejaVuSans-74"/>
      <use x="579.052734" xlink:href="#DejaVuSans-61"/>
      <use x="640.332031" xlink:href="#DejaVuSans-2f"/>
      <use x="674.023438" xlink:href="#DejaVuSans-62"/>
      <use x="737.5" xlink:href="#DejaVuSans-61"/>
      <use x="798.779297" xlink:href="#DejaVuSans-74"/>
      <use x="837.988281" xlink:href="#DejaVuSans-74"/>
      <use x="877.197266" xlink:href="#DejaVuSans-65"/>
      <use x="938.720703" xlink:href="#DejaVuSans-72"/>
      <use x="979.833984" xlink:href="#DejaVuSans-79"/>
      <use x="1039.013672" xlink:href="#DejaVuSans-5f"/>
      <use x="1089.013672" xlink:href="#DejaVuSans-76"/>
      <use x="1148.193359" xlink:href="#DejaVuSans-6f"/>
      <use x="1209.375" xlink:href="#DejaVuSans-6c"/>
      <use x="1237.158203" xlink:href="#DejaVuSans-74"/>
      <use x="1276.367188" xlink:href="#DejaVuSans-61"/>
      <use x="1337.646484" xlink:href="#DejaVuSans-67"/>
      <use x="1401.123047" xlink:href="#DejaVuSans-65"/>
     </g>
    </g>
   </g>
  </g>
 </g>
 <defs>
  <clipPath id="pdefd32e653">
   <rect height="176.96" width="374.24" x="49.48" y="13.32"/>
  </clipPath>
 </defs>
</svg>
